<?xml version="1.0" standalone="no"?><!DOCTYPE svg PUBLIC "-//W3C//DTD SVG 1.1//EN" "http://www.w3.org/Graphics/SVG/1.1/DTD/svg11.dtd"><svg height="1024" node-id="1" sillyvg="true" template-height="1024" template-width="1024" version="1.1" viewBox="0 0 1024 1024" width="1024" xmlns="http://www.w3.org/2000/svg" xmlns:xlink="http://www.w3.org/1999/xlink"><defs node-id="38"><radialGradient cx="0.5" cy="0.27637437" fx="0.5" fy="0.27637437" gradientUnits="objectBoundingBox" id="radialGradient-1" node-id="5" r="0.72362566" rev="4" spreadMethod="pad"><stop offset="0" stop-color="#fff5aa"></stop><stop offset="0.27121985" stop-color="#ffeb96"></stop><stop offset="1" stop-color="#ffa60f"></stop></radialGradient><linearGradient gradientUnits="objectBoundingBox" id="linearGradient-4" node-id="10" spreadMethod="pad" x1="0.5" x2="0.5" y1="0" y2="1"><stop offset="0" stop-color="#7083ff"></stop><stop offset="0.39992756" stop-color="#7a8cff"></stop><stop offset="0.5255809" stop-color="#556bff"></stop><stop offset="0.7348416" stop-color="#768aff"></stop><stop offset="0.9579771" stop-color="#677bff"></stop><stop offset="1" stop-color="#7589ff"></stop></linearGradient><linearGradient gradientUnits="objectBoundingBox" id="linearGradient-5" node-id="17" spreadMethod="pad" x1="0.5669464" x2="0.5245008" y1="0.4735522" y2="0.53567755"><stop offset="0" stop-color="#6d6d6d"></stop><stop offset="0.35843056" stop-color="#555258"></stop><stop offset="0.5550486" stop-color="#302838"></stop><stop offset="1" stop-color="#241e2b"></stop></linearGradient><linearGradient gradientUnits="objectBoundingBox" id="linearGradient-6" node-id="22" spreadMethod="pad" x1="0.43558234" x2="0.47668004" y1="0.47760078" y2="0.53588784"><stop offset="0" stop-color="#6d6d6d"></stop><stop offset="0.35843056" stop-color="#555258"></stop><stop offset="0.5550486" stop-color="#302838"></stop><stop offset="1" stop-color="#241e2b"></stop></linearGradient></defs><g node-id="88"><g node-id="91"><path d="M 901.43 512.18 L 901.11 527.70 L 900.20 543.08 L 898.69 558.32 L 896.58 573.45 L 893.88 588.47 L 890.59 603.40 L 886.74 618.12 L 882.32 632.64 L 877.34 646.98 L 871.80 661.14 L 865.71 675.07 L 859.09 688.73 L 851.94 702.12 L 844.26 715.25 L 836.03 728.13 L 827.32 740.66 L 818.11 752.85 L 808.40 764.70 L 798.17 776.22 L 787.42 787.42 L 776.22 798.17 L 764.70 808.40 L 752.85 818.11 L 740.66 827.32 L 728.13 836.03 L 715.25 844.26 L 702.12 851.94 L 688.73 859.09 L 675.07 865.71 L 661.14 871.80 L 646.98 877.34 L 632.64 882.32 L 618.12 886.74 L 603.40 890.59 L 588.47 893.88 L 573.45 896.58 L 558.32 898.69 L 543.08 900.20 L 527.70 901.11 L 512.18 901.43 L 496.65 901.11 L 481.28 900.20 L 466.03 898.69 L 450.90 896.58 L 435.88 893.88 L 420.95 890.59 L 406.23 886.74 L 391.71 882.32 L 377.37 877.34 L 363.22 871.80 L 349.28 865.71 L 335.63 859.09 L 322.24 851.94 L 309.10 844.26 L 296.22 836.03 L 283.69 827.32 L 271.50 818.11 L 259.65 808.40 L 248.13 798.17 L 236.93 787.42 L 226.18 776.22 L 215.95 764.70 L 206.24 752.85 L 197.03 740.66 L 188.32 728.13 L 180.09 715.25 L 172.41 702.12 L 165.26 688.73 L 158.64 675.07 L 152.55 661.14 L 147.01 646.98 L 142.03 632.64 L 137.62 618.12 L 133.76 603.40 L 130.47 588.47 L 127.77 573.45 L 125.66 558.32 L 124.15 543.08 L 123.24 527.70 L 122.92 512.18 L 123.24 496.65 L 124.15 481.28 L 125.66 466.03 L 127.77 450.90 L 130.47 435.88 L 133.76 420.95 L 137.62 406.23 L 142.03 391.71 L 147.01 377.37 L 152.55 363.22 L 158.64 349.28 L 165.26 335.63 L 172.41 322.24 L 180.09 309.10 L 188.32 296.22 L 197.03 283.69 L 206.24 271.50 L 215.95 259.65 L 226.18 248.13 L 236.93 236.93 L 248.13 226.18 L 259.65 215.95 L 271.50 206.24 L 283.69 197.03 L 296.22 188.32 L 309.10 180.09 L 322.24 172.41 L 335.63 165.26 L 349.28 158.64 L 363.22 152.55 L 377.37 147.01 L 391.71 142.03 L 406.23 137.62 L 420.95 133.76 L 435.88 130.47 L 450.90 127.77 L 466.03 125.66 L 481.28 124.15 L 496.65 123.24 L 512.18 122.92 L 527.70 123.24 L 543.08 124.15 L 558.32 125.66 L 573.45 127.77 L 588.47 130.47 L 603.40 133.76 L 618.12 137.62 L 632.64 142.03 L 646.98 147.01 L 661.14 152.55 L 675.07 158.64 L 688.73 165.26 L 702.12 172.41 L 715.25 180.09 L 728.13 188.32 L 740.66 197.03 L 752.85 206.24 L 764.70 215.95 L 776.22 226.18 L 787.42 236.93 L 798.17 248.13 L 808.40 259.65 L 818.11 271.50 L 827.32 283.69 L 836.03 296.22 L 844.26 309.10 L 851.94 322.24 L 859.09 335.63 L 865.71 349.28 L 871.80 363.22 L 877.34 377.37 L 882.32 391.71 L 886.74 406.23 L 890.59 420.95 L 893.88 435.88 L 896.58 450.90 L 898.69 466.03 L 900.20 481.28 L 901.11 496.65 L 901.43 512.18 Z" fill="url(#radialGradient-1)" fill-rule="evenodd" group-id="1,4" node-id="86" stroke="none" target-height="778.5077" target-width="778.5077" target-x="122.922264" target-y="122.922264"></path></g></g><g node-id="89"><path d="M 764.84 300.48 L 621.43 266.33 L 621.43 554.30 L 615.40 885.60 L 615.62 887.46 L 616.26 889.06 L 617.31 890.46 L 618.67 891.56 L 620.25 892.25 L 622.10 892.55 L 623.18 892.48 L 624.25 892.25 L 637.11 888.02 L 649.83 883.36 L 662.41 878.26 L 674.86 872.71 L 687.19 866.72 L 699.40 860.27 L 710.35 853.98 L 719.96 847.93 L 728.33 842.12 L 735.57 836.53 L 741.78 831.16 L 747.06 826.00 L 751.50 821.02 L 755.17 816.22 L 764.84 558.14 L 764.84 300.48 Z" fill="url(#linearGradient-4)" fill-rule="evenodd" group-id="2" id="矩形" node-id="32" stroke="none" target-height="626.21985" target-width="149.44025" target-x="615.3957" target-y="266.33157"></path></g><path d="M 512.18 323.36 C 548.06 323.36 571.35 344.99 579.72 384.52 C 581.28 391.90 576.57 399.15 569.19 400.71 C 561.81 402.27 554.56 397.56 553.00 390.18 C 547.16 362.59 534.32 350.67 512.18 350.67 C 490.00 350.67 477.09 362.63 471.16 390.28 C 469.58 397.65 462.32 402.35 454.95 400.77 C 447.57 399.19 442.87 391.92 444.46 384.55 C 452.94 344.99 476.28 323.36 512.18 323.36 Z" fill="#672900" fill-rule="nonzero" id="路径-5" node-id="33" stroke="none" target-height="78.99472" target-width="138.4093" target-x="442.8739" target-y="323.35538"></path><path d="M 259.50 300.48 L 402.91 266.33 L 402.91 554.30 L 408.94 885.60 C 409.01 889.37 406.01 892.48 402.24 892.55 C 401.51 892.56 400.79 892.46 400.09 892.25 C 374.16 884.21 349.11 873.56 324.94 860.27 C 297.98 845.45 279.39 830.77 269.17 816.22 L 259.50 558.14 L 259.50 300.48 Z" fill="url(#linearGradient-4)" fill-rule="evenodd" id="矩形" node-id="34" stroke="none" target-height="626.2333" target-width="149.50958" target-x="259.50256" target-y="266.33157"></path><path d="M 613.46 264.79 C 615.33 257.84 622.24 253.59 629.20 254.92 L 630.20 255.15 L 775.22 294.12 C 782.51 296.07 786.83 303.57 784.87 310.85 C 783.00 317.80 776.09 322.05 769.13 320.72 L 768.13 320.50 L 623.11 281.53 C 615.82 279.57 611.50 272.08 613.46 264.79 Z" fill="url(#linearGradient-5)" fill-rule="nonzero" id="路径-10" node-id="35" stroke="none" target-height="68.4666" target-width="175.32166" target-x="611.5046" target-y="253.5879"></path><path d="M 412.89 264.87 L 412.08 262.62 L 410.97 260.65 L 409.56 258.91 L 407.88 257.42 L 406.02 256.24 L 403.97 255.37 L 401.79 254.84 L 399.55 254.68 L 397.21 254.90 L 396.21 255.13 L 247.59 294.09 L 245.24 294.95 L 243.19 296.13 L 241.40 297.65 L 239.89 299.45 L 238.73 301.43 L 237.90 303.63 L 237.46 305.93 L 237.44 308.30 L 237.84 310.77 L 238.65 313.02 L 239.76 315.00 L 241.17 316.74 L 242.85 318.22 L 244.71 319.40 L 246.77 320.27 L 248.94 320.81 L 251.18 320.96 L 253.52 320.74 L 254.52 320.52 L 403.14 281.55 L 405.49 280.69 L 407.55 279.51 L 409.34 278.00 L 410.85 276.20 L 412.01 274.21 L 412.83 272.01 L 413.27 269.71 L 413.30 267.34 L 412.89 264.87 Z" fill="url(#linearGradient-6)" fill-rule="nonzero" group-id="3" id="路径-10备份" node-id="36" stroke="none" target-height="66.28238" target-width="175.85953" target-x="237.4372" target-y="254.68002"></path></svg>