<svg t="1633695001543" class="icon" viewBox="0 0 1024 1024" version="1.1" xmlns="http://www.w3.org/2000/svg" p-id="2816" width="48" height="48"><path d="M505.6 825.6c-3.2 0-6.4-1.6-9.6-3.2l-30.4-17.6c-4.8-3.2-3.2-3.2 0-4.8 6.4-1.6 8-3.2 14.4-6.4h1.6l24 14.4h3.2l92.8-52.8s1.6-1.6 1.6-3.2v-107.2c0-1.6 0-1.6-1.6-3.2l-92.8-52.8h-3.2l-92.8 52.8c-1.6 0-1.6 1.6-1.6 3.2V752c0 1.6 0 1.6 1.6 3.2l25.6 14.4c14.4 6.4 22.4-1.6 22.4-9.6v-105.6c0-1.6 1.6-3.2 3.2-3.2h11.2c1.6 0 3.2 1.6 3.2 3.2v105.6c0 19.2-9.6 28.8-27.2 28.8-4.8 0-9.6 0-20.8-6.4l-24-14.4c-6.4-3.2-9.6-9.6-9.6-17.6v-107.2c0-6.4 3.2-12.8 9.6-17.6L496 576c6.4-3.2 14.4-3.2 19.2 0l92.8 52.8c6.4 3.2 9.6 9.6 9.6 17.6V752c0 6.4-3.2 12.8-9.6 17.6l-92.8 52.8c-1.6 1.6-4.8 3.2-9.6 3.2z m75.2-105.6c0-20.8-12.8-25.6-41.6-28.8-28.8-3.2-32-6.4-32-12.8s3.2-12.8 24-12.8c19.2 0 25.6 4.8 28.8 17.6 0 1.6 1.6 1.6 3.2 1.6h14.4s1.6-1.6 0-1.6c-1.6-22.4-16-32-46.4-32-27.2 0-41.6 11.2-41.6 30.4 0 20.8 16 25.6 41.6 28.8 30.4 3.2 32 8 32 12.8 0 9.6-8 14.4-27.2 14.4-24 0-30.4-6.4-32-17.6 0-1.6-1.6-1.6-3.2-1.6h-12.8c-1.6 0-3.2 1.6-3.2 3.2 0 16 8 33.6 49.6 33.6 30.4-3.2 46.4-14.4 46.4-35.2z m88-80c0 9.6-8 17.6-17.6 17.6s-17.6-8-17.6-17.6c0-9.6 8-17.6 17.6-17.6 8 0 17.6 8 17.6 17.6z m-3.2 0c0-8-6.4-14.4-14.4-14.4s-14.4 6.4-14.4 14.4 6.4 14.4 14.4 14.4 14.4-6.4 14.4-14.4z m-8 9.6h-4.8c0-1.6-1.6-6.4-1.6-6.4 0-1.6 0-1.6-1.6-1.6h-3.2v8h-3.2v-20.8h6.4c3.2 0 6.4 0 6.4 4.8 0 3.2-3.2 4.8-3.2 4.8 3.2 0 3.2 1.6 3.2 4.8 1.6 3.2 1.6 6.4 1.6 6.4z m-4.8-14.4c0-3.2-1.6-3.2-3.2-3.2h-3.2v4.8h3.2c3.2 1.6 3.2 0 3.2-1.6zM219.2 408c0-4.8-1.6-8-6.4-9.6l-97.6-56c-1.6-1.6-3.2-1.6-4.8-1.6h-1.6c-1.6 0-3.2 0-4.8 1.6L6.4 398.4c-4.8 1.6-6.4 4.8-6.4 9.6V560c0 1.6 1.6 4.8 3.2 4.8 1.6 1.6 4.8 1.6 6.4 0l57.6-33.6c3.2-1.6 6.4-6.4 6.4-9.6v-70.4c0-4.8 1.6-8 6.4-9.6l25.6-14.4c1.6-1.6 3.2-1.6 6.4-1.6 1.6 0 4.8 0 6.4 1.6l25.6 14.4c3.2 1.6 6.4 6.4 6.4 9.6v70.4c0 4.8 1.6 8 6.4 9.6l57.6 33.6c1.6 1.6 4.8 1.6 6.4 0 1.6-1.6 3.2-3.2 3.2-4.8l-4.8-152z m537.6-166.4v281.6c0 4.8-1.6 8-6.4 9.6l-97.6 56c-3.2 1.6-8 1.6-11.2 0L544 532.8c-3.2-1.6-6.4-6.4-6.4-9.6v-113.6c0-4.8 1.6-8 6.4-9.6l97.6-56c3.2-1.6 8-1.6 11.2 0l24 14.4c3.2 1.6 6.4 0 6.4-3.2v-150.4c0-4.8 4.8-8 9.6-4.8l59.2 32c1.6 1.6 4.8 6.4 4.8 9.6zM683.2 448c0-1.6 0-1.6-1.6-3.2l-33.6-19.2h-3.2l-33.6 19.2c-1.6 0-1.6 1.6-1.6 3.2v38.4c0 1.6 0 1.6 1.6 3.2l33.6 19.2h3.2l33.6-19.2c1.6 0 1.6-1.6 1.6-3.2V448z m334.4-1.6c3.2-1.6 6.4-6.4 6.4-9.6v-27.2c0-4.8-1.6-8-6.4-9.6l-97.6-56c-3.2-1.6-8-1.6-11.2 0L811.2 400c-3.2 1.6-6.4 6.4-6.4 9.6v113.6c0 4.8 1.6 8 6.4 9.6l97.6 56c3.2 1.6 8 1.6 11.2 0l59.2-33.6c4.8-1.6 4.8-8 0-9.6L880 489.6c-1.6-1.6-3.2-3.2-3.2-4.8V448c0-1.6 1.6-4.8 3.2-4.8l30.4-17.6c1.6-1.6 4.8-1.6 6.4 0l30.4 17.6c1.6 1.6 3.2 3.2 3.2 4.8v27.2c0 4.8 4.8 8 9.6 4.8l57.6-33.6z m-123.2 6.4l-1.6 1.6v22.4s0 1.6 1.6 1.6l19.2 11.2h1.6l19.2-11.2 1.6-1.6v-22.4s0-1.6-1.6-1.6l-19.2-11.2h-1.6l-19.2 11.2z m-406.4 68.8v-112c0-4.8-3.2-8-6.4-9.6L384 342.4c-3.2-1.6-8-1.6-11.2 0L273.6 400c-3.2 1.6-6.4 6.4-6.4 9.6v112c0 4.8 3.2 8 6.4 9.6l97.6 56c3.2 1.6 8 1.6 11.2 0l97.6-56c3.2-1.6 4.8-4.8 6.4-8 1.6 1.6 1.6 0 1.6-1.6zM368 323.2z m123.2 208z" p-id="2817" fill="#8a8a8a"></path></svg>
