<?xml version="1.0" standalone="no"?><!DOCTYPE svg PUBLIC "-//W3C//DTD SVG 1.1//EN" "http://www.w3.org/Graphics/SVG/1.1/DTD/svg11.dtd"><svg height="1024" node-id="1" sillyvg="true" template-height="1024" template-width="1024" version="1.1" viewBox="0 0 1024 1024" width="1024" xmlns="http://www.w3.org/2000/svg" xmlns:xlink="http://www.w3.org/1999/xlink"><defs node-id="55"><radialGradient cx="0.5" cy="0.27637437" fx="0.5" fy="0.27637437" gradientUnits="objectBoundingBox" id="radialGradient-1" node-id="5" r="0.72362566" rev="5" spreadMethod="pad"><stop offset="0" stop-color="#9999a2"></stop><stop offset="0.27121985" stop-color="#8e8e96"></stop><stop offset="1" stop-color="#6d6d70"></stop></radialGradient><radialGradient cx="0.5" cy="0.5" fx="0.5" fy="0.5" gradientTransform="matrix(0 0.923002 -1 0 1 0.038499)" gradientUnits="objectBoundingBox" id="radialGradient-2" node-id="9" r="1.0175693" rev="4" spreadMethod="pad"><stop offset="0" stop-color="#0b2736"></stop><stop offset="1" stop-color="#000000"></stop></radialGradient><linearGradient gradientUnits="objectBoundingBox" id="linearGradient-5" node-id="13" spreadMethod="pad" x1="0.5" x2="0.5" y1="0" y2="1"><stop offset="0" stop-color="#85858c"></stop><stop offset="1" stop-color="#606061"></stop></linearGradient><linearGradient gradientUnits="objectBoundingBox" id="linearGradient-6" node-id="16" spreadMethod="pad" x1="0.22274467" x2="0.68903464" y1="0.03886066" y2="0.80164015"><stop offset="0" stop-color="#404040"></stop><stop offset="1" stop-color="#2b2b2b"></stop></linearGradient><linearGradient gradientUnits="objectBoundingBox" id="linearGradient-7" node-id="19" spreadMethod="pad" x1="0.41494107" x2="0.5" y1="0.076398805" y2="1"><stop offset="0" stop-color="#5a5a58"></stop><stop offset="1" stop-color="#484847"></stop></linearGradient><clipPath id="mask-4_4" node-id="25"><path d="M 488.24 614.61 L 536.11 614.61 L 540.67 614.87 L 545.03 615.59 L 549.22 616.76 L 553.25 618.37 L 557.11 620.41 L 560.68 622.79 L 563.97 625.55 L 567.01 628.68 L 569.69 632.10 L 571.99 635.79 L 573.90 639.77 L 575.43 644.08 L 640.68 867.00 L 641.48 870.67 L 641.79 874.26 L 641.60 877.81 L 640.96 881.30 L 639.91 884.61 L 638.43 887.78 L 636.56 890.74 L 634.33 893.42 L 631.74 895.84 L 628.85 897.90 L 625.66 899.59 L 622.14 900.89 L 619.66 901.49 L 604.52 904.13 L 588.35 906.36 L 571.09 908.15 L 552.68 909.46 L 533.06 910.28 L 512.18 910.56 L 491.29 910.28 L 471.67 909.46 L 453.26 908.15 L 436.00 906.36 L 419.83 904.13 L 404.69 901.49 L 401.06 900.52 L 397.73 899.15 L 394.66 897.36 L 391.86 895.19 L 389.39 892.73 L 387.25 889.96 L 385.48 886.94 L 384.12 883.74 L 383.16 880.32 L 382.65 876.81 L 382.62 873.21 L 383.07 869.48 L 383.67 867.00 L 448.92 644.08 L 450.45 639.77 L 452.37 635.79 L 454.66 632.10 L 457.34 628.68 L 460.38 625.55 L 463.68 622.79 L 467.24 620.41 L 471.10 618.37 L 475.14 616.76 L 479.32 615.59 L 483.68 614.87 L 488.24 614.61 Z" fill="#000000" fill-rule="evenodd" node-id="92" stroke="none" target-height="295.94788" target-width="259.16983" target-x="382.6155" target-y="614.6113"></path></clipPath><clipPath id="mask-4_3" node-id="25"><path d="M 488.24 614.61 L 536.11 614.61 L 540.67 614.87 L 545.03 615.59 L 549.22 616.76 L 553.25 618.37 L 557.11 620.41 L 560.68 622.79 L 563.97 625.55 L 567.01 628.68 L 569.69 632.10 L 571.99 635.79 L 573.90 639.77 L 575.43 644.08 L 640.68 867.00 L 641.48 870.67 L 641.79 874.26 L 641.60 877.81 L 640.96 881.30 L 639.91 884.61 L 638.43 887.78 L 636.56 890.74 L 634.33 893.42 L 631.74 895.84 L 628.85 897.90 L 625.66 899.59 L 622.14 900.89 L 619.66 901.49 L 604.52 904.13 L 588.35 906.36 L 571.09 908.15 L 552.68 909.46 L 533.06 910.28 L 512.18 910.56 L 491.29 910.28 L 471.67 909.46 L 453.26 908.15 L 436.00 906.36 L 419.83 904.13 L 404.69 901.49 L 401.06 900.52 L 397.73 899.15 L 394.66 897.36 L 391.86 895.19 L 389.39 892.73 L 387.25 889.96 L 385.48 886.94 L 384.12 883.74 L 383.16 880.32 L 382.65 876.81 L 382.62 873.21 L 383.07 869.48 L 383.67 867.00 L 448.92 644.08 L 450.45 639.77 L 452.37 635.79 L 454.66 632.10 L 457.34 628.68 L 460.38 625.55 L 463.68 622.79 L 467.24 620.41 L 471.10 618.37 L 475.14 616.76 L 479.32 615.59 L 483.68 614.87 L 488.24 614.61 Z" fill="#000000" fill-rule="evenodd" node-id="92" stroke="none" target-height="295.94788" target-width="259.16983" target-x="382.6155" target-y="614.6113"></path></clipPath><clipPath id="mask-4" node-id="25"><path d="M 112.65 0.00 L 160.51 0.00 C 178.71 -0.00 194.72 12.00 199.84 29.46 L 265.08 252.39 C 269.32 266.86 261.02 282.04 246.54 286.28 C 245.72 286.52 244.90 286.72 244.06 286.88 C 212.85 292.93 177.03 295.95 136.58 295.95 C 96.13 295.95 60.31 292.93 29.10 286.88 C 14.29 284.01 4.61 269.68 7.48 254.87 C 7.64 254.03 7.84 253.20 8.08 252.39 L 73.32 29.46 C 78.44 12.00 94.45 -0.00 112.65 0.00 Z" fill="#000000" fill-rule="evenodd" node-id="92" stroke="none" target-height="295.94785" target-width="264.71182" target-x="4.608156" target-y="0"></path></clipPath></defs><path d="M 512.18 122.92 C 727.16 122.92 901.43 297.20 901.43 512.18 C 901.43 634.76 844.76 744.12 756.19 815.47 L 703.71 769.29 L 733.01 714.59 L 690.96 673.23 L 703.71 714.59 L 656.80 782.95 L 705.33 850.20 C 648.41 882.80 582.47 901.43 512.18 901.43 C 297.20 901.43 122.92 727.16 122.92 512.18 C 122.92 404.42 166.71 306.90 237.45 236.41 C 247.39 246.24 280.43 261.78 336.58 283.04 L 327.74 330.14 L 334.55 317.51 L 353.77 275.02 C 332.09 265.70 316.17 256.65 305.99 247.87 C 298.21 241.16 290.31 224.54 282.31 198.01 C 346.73 150.80 426.20 122.92 512.18 122.92 Z" fill="url(#radialGradient-1)" fill-rule="evenodd" id="形状结合" node-id="23" stroke="none" target-height="778.5077" target-width="778.5077" target-x="122.922264" target-y="122.922264"></path><g node-id="111"><g node-id="115"><path d="M 488.24 614.61 L 536.11 614.61 L 540.67 614.87 L 545.03 615.59 L 549.22 616.76 L 553.25 618.37 L 557.11 620.41 L 560.68 622.79 L 563.97 625.55 L 567.01 628.68 L 569.69 632.10 L 571.99 635.79 L 573.90 639.77 L 575.43 644.08 L 640.68 867.00 L 641.48 870.67 L 641.79 874.26 L 641.60 877.81 L 640.96 881.30 L 639.91 884.61 L 638.43 887.78 L 636.56 890.74 L 634.33 893.42 L 631.74 895.84 L 628.85 897.90 L 625.66 899.59 L 622.14 900.89 L 619.66 901.49 L 604.52 904.13 L 588.35 906.36 L 571.09 908.15 L 552.68 909.46 L 533.06 910.28 L 512.18 910.56 L 491.29 910.28 L 471.67 909.46 L 453.26 908.15 L 436.00 906.36 L 419.83 904.13 L 404.69 901.49 L 401.06 900.52 L 397.73 899.15 L 394.66 897.36 L 391.86 895.19 L 389.39 892.73 L 387.25 889.96 L 385.48 886.94 L 384.12 883.74 L 383.16 880.32 L 382.65 876.81 L 382.62 873.21 L 383.07 869.48 L 383.67 867.00 L 448.92 644.08 L 450.45 639.77 L 452.37 635.79 L 454.66 632.10 L 457.34 628.68 L 460.38 625.55 L 463.68 622.79 L 467.24 620.41 L 471.10 618.37 L 475.14 616.76 L 479.32 615.59 L 483.68 614.87 L 488.24 614.61 Z" fill="url(#radialGradient-2)" fill-rule="evenodd" group-id="1,5" node-id="101" stroke="none" target-height="295.94788" target-width="259.16983" target-x="382.6155" target-y="614.6113"></path></g><g node-id="116"><g clip-path="url(#mask-4_3)" group-id="1,6" node-id="104"><path d="M 437.06 614.61 L 587.30 614.61 L 587.30 655.59 L 437.06 655.59 Z" fill="#ffffff" fill-rule="evenodd" group-id="1,6" node-id="106" stroke="none" target-height="40.97406" target-width="150.23834" target-x="437.05695" target-y="614.6113"></path></g></g><g clip-path="url(#mask-4_4)" group-id="1,7" node-id="109"><path d="M 375.60 860.46 L 648.76 860.46 L 648.76 915.09 L 375.60 915.09 Z" fill="#ffffff" fill-rule="evenodd" group-id="1,7" id="矩形备份" node-id="29" stroke="none" target-height="54.63214" target-width="273.16058" target-x="375.59583" target-y="860.4559"></path></g></g><path d="M 488.24 614.61 L 536.11 614.61 C 554.30 614.61 570.32 626.61 575.43 644.08 L 640.68 867.00 C 644.92 881.48 636.62 896.65 622.14 900.89 C 621.32 901.13 620.49 901.33 619.66 901.49 C 588.45 907.54 552.62 910.56 512.18 910.56 C 471.73 910.56 435.90 907.54 404.69 901.49 C 389.88 898.62 380.20 884.29 383.07 869.48 C 383.24 868.64 383.44 867.81 383.67 867.00 L 448.92 644.08 C 454.03 626.61 470.05 614.61 488.24 614.61 Z" fill="none" id="蒙版" node-id="30" stroke="url(#linearGradient-5)" stroke-linecap="butt" stroke-width="27.31606" target-height="295.9478" target-width="264.7118" target-x="380.20398" target-y="614.6113"></path><path d="M 761.42 848.43 L 794.32 877.80 L 780.22 891.19 Z" fill="url(#linearGradient-6)" fill-rule="evenodd" group-id="2" id="路径-28" node-id="32" stroke="none" target-height="42.754517" target-width="32.895935" target-x="761.42303" target-y="848.43256"></path><path d="M 761.42 848.43 L 759.23 885.38 L 780.22 891.19 Z" fill="url(#linearGradient-7)" fill-rule="evenodd" group-id="2" id="路径-13" node-id="33" stroke="none" target-height="42.754517" target-width="20.987549" target-x="759.2312" target-y="848.43256"></path><path d="M 268.36 245.84 L 271.03 274.91 L 291.43 271.60 Z" fill="#787777" fill-rule="evenodd" group-id="3" id="路径-29" node-id="35" stroke="none" target-height="29.069351" target-width="23.071533" target-x="268.3595" target-y="245.84453"></path><path d="M 271.03 274.91 L 260.27 284.51 L 291.43 271.60 Z" fill="#1e1e1e" fill-rule="evenodd" group-id="3" id="路径-30" node-id="36" stroke="none" target-height="12.906342" target-width="31.160583" target-x="260.27045" target-y="271.6044"></path><path d="M 268.36 245.84 L 271.03 274.91 L 260.27 284.51 L 261.28 274.85 L 262.53 267.42 L 264.47 259.47 L 268.36 245.84 Z" fill="#403e3e" fill-rule="evenodd" group-id="3" id="路径-31" node-id="37" stroke="none" target-height="38.666214" target-width="10.75647" target-x="260.27045" target-y="245.84453"></path><path d="M 219.39 300.48 L 229.95 318.01 L 238.31 311.29 Z" fill="#787777" fill-rule="evenodd" group-id="4" id="路径-32" node-id="39" stroke="none" target-height="17.536743" target-width="18.915894" target-x="219.39435" target-y="300.47665"></path><path d="M 219.39 300.48 L 220.42 323.20 L 229.95 318.01 Z" fill="#403e3e" fill-rule="evenodd" group-id="4" id="路径-33" node-id="40" stroke="none" target-height="22.722656" target-width="10.560486" target-x="219.39435" target-y="300.47665"></path><path d="M 238.31 311.29 L 231.29 321.13 L 220.42 323.20 Z" fill="#1e1e1e" fill-rule="evenodd" group-id="4" id="路径-34" node-id="41" stroke="none" target-height="11.914001" target-width="17.8918" target-x="220.41844" target-y="311.2853"></path><path d="M 566.81 221.94 C 566.81 227.60 560.69 232.19 553.15 232.19 C 545.61 232.19 539.49 227.60 539.49 221.94 C 539.49 216.29 545.61 211.70 553.15 211.70 C 560.69 211.70 566.81 216.29 566.81 221.94 Z" fill="#77777b" fill-rule="evenodd" id="椭圆形" node-id="42" stroke="none" target-height="20.487045" target-width="27.31604" target-x="539.4922" target-y="211.69946"></path><path d="M 396.08 624.85 C 396.08 630.51 389.97 635.10 382.42 635.10 C 374.88 635.10 368.77 630.51 368.77 624.85 C 368.77 619.20 374.88 614.61 382.42 614.61 C 389.97 614.61 396.08 619.20 396.08 624.85 Z" fill="#6a6a6d" fill-rule="evenodd" id="椭圆形备份-2" node-id="43" stroke="none" target-height="20.48706" target-width="27.31607" target-x="368.76678" target-y="614.6113"></path><path d="M 382.42 638.51 C 382.42 644.17 376.31 648.76 368.77 648.76 C 361.22 648.76 355.11 644.17 355.11 638.51 C 355.11 632.86 361.22 628.27 368.77 628.27 C 376.31 628.27 382.42 632.86 382.42 638.51 Z" fill="#6a6a6d" fill-rule="evenodd" id="椭圆形备份-3" node-id="44" stroke="none" target-height="20.48706" target-width="27.31607" target-x="355.10876" target-y="628.26935"></path><path d="M 798.99 338.04 C 798.99 343.69 792.88 348.28 785.34 348.28 C 777.79 348.28 771.68 343.69 771.68 338.04 C 771.68 332.38 777.79 327.79 785.34 327.79 C 792.88 327.79 798.99 332.38 798.99 338.04 Z" fill="#6a6a6d" fill-rule="evenodd" id="椭圆形备份-9" node-id="45" stroke="none" target-height="20.48706" target-width="27.316101" target-x="771.67865" target-y="327.7927"></path><path d="M 792.17 351.69 C 792.17 357.35 786.05 361.94 778.51 361.94 C 770.96 361.94 764.85 357.35 764.85 351.69 C 764.85 346.04 770.96 341.45 778.51 341.45 C 786.05 341.45 792.17 346.04 792.17 351.69 Z" fill="#6a6a6d" fill-rule="evenodd" id="椭圆形备份-10" node-id="46" stroke="none" target-height="20.48703" target-width="27.31604" target-x="764.8497" target-y="341.45074"></path><path d="M 860.46 590.71 C 860.46 596.37 854.34 600.95 846.80 600.95 C 839.25 600.95 833.14 596.37 833.14 590.71 C 833.14 585.05 839.25 580.47 846.80 580.47 C 854.34 580.47 860.46 585.05 860.46 590.71 Z" fill="#6a6a6d" fill-rule="evenodd" id="椭圆形备份-4" node-id="47" stroke="none" target-height="20.48706" target-width="27.316101" target-x="833.1398" target-y="580.46625"></path><path d="M 867.28 604.37 C 867.28 610.03 861.17 614.61 853.63 614.61 C 846.08 614.61 839.97 610.03 839.97 604.37 C 839.97 598.71 846.08 594.12 853.63 594.12 C 861.17 594.12 867.28 598.71 867.28 604.37 Z" fill="#6a6a6d" fill-rule="evenodd" id="椭圆形备份-5" node-id="48" stroke="none" target-height="20.48706" target-width="27.31604" target-x="839.9688" target-y="594.12427"></path><path d="M 826.31 665.83 C 826.31 671.49 820.20 676.07 812.65 676.07 C 805.11 676.07 798.99 671.49 798.99 665.83 C 798.99 660.17 805.11 655.59 812.65 655.59 C 820.20 655.59 826.31 660.17 826.31 665.83 Z" fill="#6a6a6d" fill-rule="evenodd" id="椭圆形备份-6" node-id="49" stroke="none" target-height="20.48706" target-width="27.31604" target-x="798.99475" target-y="655.5854"></path><path d="M 170.73 590.71 C 170.73 596.37 164.61 600.95 157.07 600.95 C 149.52 600.95 143.41 596.37 143.41 590.71 C 143.41 585.05 149.52 580.47 157.07 580.47 C 164.61 580.47 170.73 585.05 170.73 590.71 Z" fill="#6a6a6d" fill-rule="evenodd" id="椭圆形备份-7" node-id="50" stroke="none" target-height="20.48706" target-width="27.316055" target-x="143.40932" target-y="580.46625"></path><path d="M 341.45 836.55 C 341.45 842.21 335.34 846.80 327.79 846.80 C 320.25 846.80 314.13 842.21 314.13 836.55 C 314.13 830.90 320.25 826.31 327.79 826.31 C 335.34 826.31 341.45 830.90 341.45 836.55 Z" fill="#58585a" fill-rule="evenodd" id="椭圆形备份-8" node-id="51" stroke="none" target-height="20.48706" target-width="27.31607" target-x="314.13467" target-y="826.3108"></path><path d="M 471.20 471.20 C 471.20 542.86 413.11 600.95 341.45 600.95 C 269.79 600.95 211.70 542.86 211.70 471.20 C 211.70 399.54 269.79 341.45 341.45 341.45 C 413.11 341.45 471.20 399.54 471.20 471.20 Z" fill="#ffffff" fill-rule="evenodd" id="椭圆形" node-id="52" stroke="none" target-height="259.50256" target-width="259.50256" target-x="211.69946" target-y="341.45074"></path><path d="M 812.65 471.20 C 812.65 542.86 754.56 600.95 682.90 600.95 C 611.24 600.95 553.15 542.86 553.15 471.20 C 553.15 399.54 611.24 341.45 682.90 341.45 C 754.56 341.45 812.65 399.54 812.65 471.20 Z" fill="#ffffff" fill-rule="evenodd" id="椭圆形备份" node-id="53" stroke="none" target-height="259.50256" target-width="259.50256" target-x="553.1502" target-y="341.45074"></path></svg>